<?xml version="1.0" encoding="utf-8"?>
<!-- Generator: Adobe Illustrator 18.1.1, SVG Export Plug-In . SVG Version: 6.00 Build 0)  -->
<!DOCTYPE svg PUBLIC "-//W3C//DTD SVG 1.1//EN" "http://www.w3.org/Graphics/SVG/1.1/DTD/svg11.dtd">
<svg xmlns="http://www.w3.org/2000/svg" xmlns:xlink="http://www.w3.org/1999/xlink" version="1.1" id="Layer_1" x="0px" y="0px" width="84px" height="64px" viewBox="0 0 84 64" xml:space="preserve">
<g>
	<path fill="#9E9994" d="M79,28H5c-0.309,0-0.6,0.142-0.789,0.385c-0.19,0.242-0.256,0.559-0.182,0.857l8.01,32.034   C12.232,61.95,12.822,64,15,64h54c2.186,0,2.77-2.052,2.971-2.758l8-32c0.074-0.299,0.008-0.615-0.182-0.857   C79.6,28.141,79.309,28,79,28z M70.039,60.726C69.676,62,69.301,62,69,62H15c-0.299,0-0.672,0-1.029-1.242L6.281,30h71.438   L70.039,60.726z"/>
	<path fill="#9E9994" d="M37,56c0.553,0,1-0.447,1-1V37c0-0.553-0.447-1-1-1c-0.553,0-1,0.447-1,1v18C36,55.553,36.447,56,37,56z"/>
	<path fill="#9E9994" d="M22.998,56c0.037,0,0.074-0.002,0.113-0.006c0.549-0.062,0.943-0.556,0.883-1.105l-2-18   c-0.061-0.55-0.539-0.937-1.106-0.884c-0.549,0.062-0.943,0.556-0.883,1.105l2,18C22.063,55.622,22.496,56,22.998,56z"/>
	<path fill="#9E9994" d="M49,56c0.553,0,1-0.447,1-1V37c0-0.553-0.447-1-1-1c-0.553,0-1,0.447-1,1v18C48,55.553,48.447,56,49,56z"/>
	<path fill="#9E9994" d="M60.889,55.994C60.928,55.998,60.965,56,61.002,56c0.502,0,0.936-0.378,0.992-0.89l2-18   c0.06-0.549-0.334-1.043-0.883-1.105c-0.574-0.056-1.045,0.334-1.106,0.884l-2,18C59.945,55.438,60.34,55.932,60.889,55.994z"/>
	<path fill="#9E9994" d="M69,24c0.232,0,0.465-0.08,0.654-0.243c0.418-0.361,0.463-0.992,0.102-1.41l-19-22   c-0.361-0.42-0.992-0.463-1.41-0.103c-0.418,0.361-0.463,0.992-0.102,1.41l19,22C68.441,23.883,68.721,24,69,24z"/>
	<path fill="#9E9994" d="M35.633,0.225c-0.426-0.347-1.057-0.288-1.406,0.142l-18,22c-0.35,0.427-0.287,1.057,0.141,1.407   C16.553,23.926,16.777,24,17,24c0.289,0,0.576-0.125,0.773-0.367l18-22C36.123,1.206,36.061,0.576,35.633,0.225z"/>
	<path fill="#9E9994" d="M83,20h-8c-0.553,0-1,0.447-1,1s0.447,1,1,1h8c0.553,0,1-0.447,1-1S83.553,20,83,20z"/>
	<path fill="#9E9994" d="M27,22h32c0.553,0,1-0.447,1-1s-0.447-1-1-1H27c-0.553,0-1,0.447-1,1S26.447,22,27,22z"/>
	<path fill="#9E9994" d="M1,22h10c0.553,0,1-0.447,1-1s-0.447-1-1-1H1c-0.553,0-1,0.447-1,1S0.447,22,1,22z"/>
</g>
</svg>
