<?xml version="1.0" encoding="utf-8"?>
<!-- Generator: Adobe Illustrator 18.1.1, SVG Export Plug-In . SVG Version: 6.00 Build 0)  -->
<!DOCTYPE svg PUBLIC "-//W3C//DTD SVG 1.1//EN" "http://www.w3.org/Graphics/SVG/1.1/DTD/svg11.dtd">
<svg xmlns="http://www.w3.org/2000/svg" xmlns:xlink="http://www.w3.org/1999/xlink" version="1.1" id="Layer_1" x="0px" y="0px" width="44.847px" height="64px" viewBox="0 0 44.847 64" xml:space="preserve">
<g>
	<path fill="#9E9994" d="M42.847,63c0-0.553-0.447-1-1-1h-36c-0.553,0-1,0.447-1,1s0.447,1,1,1h36   C42.399,64,42.847,63.553,42.847,63z"/>
	<path fill="#9E9994" d="M1.395,18.709c-0.836,0.557-2.103,2.248-0.902,4.652c0.998,1.994,3.08,4.434,5.295,5.078   c1.129,0.332,2.24,0.193,3.211-0.393c2.197-1.316,4.795-3.096,5.894-3.859c1.389,0.701,3.141,0.848,4.92,0.391   c0.008-0.002,0.015-0.006,0.023-0.008c-0.104,3.303-1.222,5.363-6.687,10.44c-4.871,4.521-7.762,10.463-7.734,15.893   c0.019,3.562,1.318,6.619,3.76,8.838C9.358,59.908,9.599,60,9.847,60h28c0.553,0,1-0.447,1-1s-0.447-1-1-1H10.245   c-1.838-1.811-2.814-4.26-2.83-7.109c-0.025-4.805,2.693-10.33,7.094-14.416c5.83-5.412,7.338-7.977,7.338-12.475   c0-0.081-0.028-0.154-0.046-0.229c1.093-0.59,2.039-1.37,2.687-2.314c0.811-1.18,2.555-4.211,1.26-6.893   c-0.24-0.494-0.838-0.703-1.336-0.465c-0.496,0.24-0.705,0.838-0.465,1.336c0.582,1.205,0.168,3.033-1.107,4.891   c-0.736,1.072-2.053,1.937-3.521,2.314c-1.494,0.383-2.914,0.215-3.904-0.465c-0.346-0.236-0.801-0.234-1.143,0.008   c-0.035,0.023-3.555,2.502-6.299,4.148c-0.502,0.301-1.031,0.363-1.625,0.188c-1.549-0.451-3.25-2.424-4.064-4.053   c-0.658-1.316,0.016-1.943,0.322-2.168C9.499,14.346,12.958,8.158,13.101,7.896c0.135-0.242,0.162-0.531,0.074-0.797   c-0.01-0.029-0.699-2.127-1.08-4.066c2.092,1.26,5.69,3.02,9.436,3.02c5.207,0,17.316,1.943,17.316,19.951   c0,0.098-0.018,9.889-3.939,20.654c-0.19,0.518,0.078,1.092,0.598,1.281C35.618,47.98,35.733,48,35.847,48   c0.408,0,0.791-0.252,0.939-0.658C40.829,36.246,40.849,26.41,40.847,26c0-20.365-14.785-21.947-19.316-21.947   c-5.018,0-10.023-3.807-10.072-3.846c-0.305-0.23-0.709-0.269-1.053-0.103C10.063,0.271,9.847,0.619,9.847,1   c0,1.963,0.93,5.137,1.291,6.295C10.301,8.689,7.007,13.855,1.395,18.709z"/>
	<path fill="#9E9994" d="M33.817,3.08C30.614,0.922,27.034,0,21.847,0c-0.553,0-1,0.447-1,1s0.447,1,1,1   c4.76,0,8.006,0.818,10.854,2.738C37.329,7.861,42.847,14.086,42.847,26c0,2.902,0,6.877-1.971,14.758   c-0.133,0.535,0.192,1.078,0.729,1.213C41.686,41.99,41.767,42,41.847,42c0.449,0,0.857-0.303,0.971-0.758   c2.029-8.119,2.029-12.236,2.029-15.242C44.847,13.207,38.849,6.475,33.817,3.08z"/>
</g>
</svg>
