<?xml version="1.0" encoding="utf-8"?>
<!-- Generator: Adobe Illustrator 18.1.1, SVG Export Plug-In . SVG Version: 6.00 Build 0)  -->
<!DOCTYPE svg PUBLIC "-//W3C//DTD SVG 1.1//EN" "http://www.w3.org/Graphics/SVG/1.1/DTD/svg11.dtd">
<svg xmlns="http://www.w3.org/2000/svg" xmlns:xlink="http://www.w3.org/1999/xlink" version="1.1" id="Layer_1" x="0px" y="0px" width="43.818px" height="64px" viewBox="0 0 43.818 64" xml:space="preserve">
<path fill="#9E9994" d="M30.591,42H40c2.105,0,3.818-1.713,3.818-3.818V3.818C43.818,1.713,42.105,0,40,0H3.818  C1.713,0,0,1.713,0,3.818v34.363C0,40.287,1.713,42,3.818,42h9.925c0.695,0,4.166,0.148,4.166,3.084  c0,5.244-1.106,7.684-1.523,8.604l-0.098,0.219l0.807,0.348v0.025L16.2,54.1c-0.034,0.066-0.06,0.137-0.076,0.209  c-0.309,0.822-0.465,1.666-0.465,2.514c0,4.293,2.462,7.178,6.125,7.178c3.701,0,6.188-2.885,6.188-7.178  c0-0.781-0.133-1.56-0.396-2.322c-0.01-0.229-0.098-0.439-0.237-0.604c-0.052-0.119-0.12-0.25-0.202-0.404  c-0.439-0.83-1.353-2.555-1.353-8.408C25.784,43.844,27.064,42,30.591,42z M2,24h40v8H2V24z M3.818,2H40c1.003,0,2,0.816,2,1.818  v18.299H2V3.818C2,2.816,2.815,2,3.818,2z M25.369,54.428c0.056,0.105,0.103,0.193,0.186,0.379c0.001,0.002,0.007,0.014,0.015,0.031  c0.008,0.025,0.017,0.051,0.026,0.076c0.249,0.627,0.375,1.27,0.375,1.908c0,2.504-1.1,5.178-4.188,5.178  c-3.041,0-4.125-2.674-4.125-5.178c0-0.639,0.126-1.281,0.375-1.908c0.009-0.023,0.018-0.047,0.024-0.07  c0.027-0.061,0.063-0.137,0.065-0.145l0.084-0.186c0.465-1.027,1.701-3.752,1.701-9.43c0-4.014-3.874-5.084-6.226-5.084  c-0.001,0-0.001,0-0.001,0H3.818C2.815,40,2,39.184,2,38.182V34h40v4.182C42,39.184,41.003,40,40,40h-9.409  c-4.994,0-6.807,3.041-6.807,5.084C23.784,51.434,24.855,53.457,25.369,54.428z"/>
</svg>
