<?xml version="1.0" encoding="utf-8"?>
<!-- Generator: Adobe Illustrator 18.1.1, SVG Export Plug-In . SVG Version: 6.00 Build 0)  -->
<!DOCTYPE svg PUBLIC "-//W3C//DTD SVG 1.1//EN" "http://www.w3.org/Graphics/SVG/1.1/DTD/svg11.dtd">
<svg xmlns="http://www.w3.org/2000/svg" xmlns:xlink="http://www.w3.org/1999/xlink" version="1.1" id="Layer_1" x="0px" y="0px" width="64px" height="64px" viewBox="0 0 64 64" xml:space="preserve">
<g>
	<path fill="#9E9994" d="M3,64h28c0.553,0,1-0.447,1-1s-0.447-1-1-1H3c-0.552,0-1-0.448-1-1V3c0-0.552,0.448-1,1-1h42   c0.552,0,1,0.448,1,1v10c0,0.553,0.447,1,1,1s1-0.447,1-1V3c0-1.654-1.346-3-3-3H3C1.346,0,0,1.346,0,3v58C0,62.654,1.346,64,3,64z   "/>
	<path fill="#9E9994" d="M36,21v40c0,1.654,1.346,3,3,3h22c1.654,0,3-1.346,3-3V21c0-1.654-1.346-3-3-3H39   C37.346,18,36,19.346,36,21z M62,21v40c0,0.552-0.448,1-1,1H39c-0.552,0-1-0.448-1-1V21c0-0.552,0.448-1,1-1h22   C61.552,20,62,20.448,62,21z"/>
	<circle fill="#9E9994" cx="24" cy="56" r="2"/>
	<circle fill="#9E9994" cx="50" cy="56" r="2"/>
</g>
</svg>
